<svg width="45" height="50" viewBox="0 0 45 50" fill="none" xmlns="http://www.w3.org/2000/svg">
<path d="M14.8083 32.2547C14.5764 32.2547 14.3551 32.1037 14.2573 31.8512C14.1823 31.6574 14.1548 31.5143 14.1085 31.2761C14.0869 31.1642 14.0587 31.0184 14.016 30.818C13.9404 30.4605 14.1401 30.1013 14.4622 30.0167C14.7819 29.936 15.1069 30.1547 15.1836 30.5125C15.2281 30.7243 15.258 30.8779 15.2808 30.9963C15.3206 31.2019 15.3312 31.2527 15.3593 31.3242C15.4899 31.6626 15.3494 32.0542 15.0455 32.2C14.9681 32.2364 14.888 32.2547 14.8083 32.2547Z" fill="white"/>
<path d="M21.5857 38.6042C21.5588 38.6042 21.5319 38.6029 21.5043 38.599C18.861 38.1982 16.5245 36.5299 15.0933 34.0236C14.9159 33.7125 14.999 33.3013 15.2789 33.1035C15.5577 32.907 15.9284 32.9981 16.1064 33.3104C17.3473 35.485 19.374 36.9307 21.666 37.2781C21.9946 37.3276 22.224 37.6633 22.1796 38.0277C22.1386 38.3622 21.8808 38.6042 21.5857 38.6042Z" fill="white"/>
<path d="M21.5 45C13.5048 45 7 38.5266 7 30.5698C7 25.4358 14.5013 8.73924 16.4176 4.93622C17.6969 2.3978 19.4781 1 21.4341 1C22.5624 1 24.7148 1.51057 26.4585 4.93032C28.4789 8.89415 36 25.3801 36 30.5698C36 38.5266 29.4952 45 21.5 45ZM21.4341 3.688C20.5787 3.688 19.6061 4.60476 18.8325 6.1411C16.4855 10.7973 9.70111 26.4288 9.70111 30.5698C9.70111 37.0448 14.9938 42.312 21.5 42.312C28.0062 42.312 33.2989 37.0448 33.2989 30.5698C33.2989 26.4924 26.734 11.4128 24.0501 6.14639C23.2535 4.58379 22.2999 3.688 21.4341 3.688Z" fill="white"/>
</svg>
