<svg width="23" height="24" viewBox="0 0 23 24" fill="none" xmlns="http://www.w3.org/2000/svg">
<path d="M21.5559 23.2121L12.9456 14.3409C12.2581 14.9444 11.4675 15.4114 10.5737 15.742C9.67997 16.0726 8.78164 16.2378 7.87872 16.2378C5.67689 16.2378 3.8133 15.4525 2.28797 13.8819C0.762637 12.3104 -3.05176e-05 10.3908 -3.05176e-05 8.12317C-3.05176e-05 5.85556 0.761719 3.93503 2.28522 2.36158C3.80964 0.787194 5.67231 0 7.87322 0C10.0751 0 11.9396 0.785778 13.4667 2.35733C14.9939 3.92889 15.7575 5.84942 15.7575 8.11892C15.7575 9.10303 15.5883 10.0555 15.2501 10.9763C14.9109 11.8972 14.4663 12.6848 13.9163 13.3393L22.5266 22.2091L21.5559 23.2121ZM7.87872 14.8198C9.70289 14.8198 11.2433 14.1728 12.5001 12.8789C13.7559 11.585 14.3839 9.99789 14.3839 8.1175C14.3839 6.23806 13.7559 4.65139 12.5001 3.3575C11.2443 2.06361 9.70426 1.41667 7.8801 1.41667C6.05593 1.41667 4.51547 2.06361 3.25872 3.3575C2.00289 4.65139 1.37497 6.23806 1.37497 8.1175C1.37497 9.99694 2.00289 11.5836 3.25872 12.8775C4.51455 14.1714 6.05455 14.8198 7.87872 14.8198Z" fill="#24CB8F"/>
</svg>
