<svg width="47" height="44" viewBox="0 0 47 44" fill="none" xmlns="http://www.w3.org/2000/svg">
<path d="M38.9213 13.7146C37.4986 5.84321 30.8797 0 23.2278 0C15.6811 0 9.24164 5.51897 7.62095 13.2041C5.43491 14.0036 3.52641 15.5425 2.16066 17.6072C0.794899 19.6719 0.0397035 22.1597 0 24.725C0 31.4719 5.17136 36.9633 11.5242 36.9633C11.7073 36.9608 11.8897 36.9377 12.0686 36.8943C15.9481 36.8907 19.6679 35.1708 22.4118 32.112C25.1556 29.0533 26.6994 24.9055 26.7043 20.5789C26.7043 20.2129 26.5739 19.862 26.3419 19.6032C26.1099 19.3445 25.7952 19.1991 25.4671 19.1991C25.139 19.1991 24.8243 19.3445 24.5923 19.6032C24.3603 19.862 24.2299 20.2129 24.2299 20.5789C24.2267 24.1623 22.9527 27.5988 20.6859 30.1385C18.4191 32.6782 15.3435 34.1148 12.1304 34.1348H12.0624C11.8797 34.1176 11.6959 34.1459 11.5242 34.2176C6.53225 34.2038 2.47434 29.9473 2.47434 24.725C2.51838 22.6187 3.18142 20.5868 4.36157 18.9416C5.54172 17.2964 7.17367 16.129 9.00658 15.6187C9.23231 15.5496 9.43583 15.4105 9.5935 15.2176C9.75118 15.0246 9.85653 14.7857 9.89734 14.5287C11.0046 7.71276 16.609 2.75949 23.2278 2.75949C29.8467 2.75949 35.6614 7.98181 36.6016 14.9081C36.6336 15.1514 36.7233 15.3807 36.8614 15.5723C36.9995 15.764 37.1811 15.911 37.3872 15.9981C39.0383 16.6357 40.4721 17.8273 41.4921 19.4094C42.5121 20.9916 43.0682 22.8868 43.0844 24.8354C43.0844 29.9749 39.243 34.1279 34.3376 34.3004C34.0095 34.3059 33.6968 34.4565 33.4682 34.7192C33.2397 34.9818 33.1141 35.3349 33.119 35.7009C33.1239 36.0668 33.259 36.4155 33.4945 36.6704C33.73 36.9253 34.0466 37.0654 34.3747 37.0599H34.4118C40.6657 36.8391 45.5463 31.4719 45.5463 24.8354C45.538 22.4623 44.906 20.1441 43.7285 18.1675C42.551 16.191 40.8796 14.6428 38.9213 13.7146Z" fill="white"/>
<path d="M31.8447 19.9097C31.6822 19.9097 31.5214 19.9454 31.3713 20.0147C31.2212 20.0841 31.0848 20.1857 30.9699 20.3138C30.855 20.4419 30.7639 20.594 30.7017 20.7614C30.6395 20.9288 30.6075 21.1082 30.6075 21.2894C30.5945 26.5775 28.7046 31.6447 25.3512 35.3833C21.9978 39.1219 17.4535 41.2278 12.7119 41.2405C12.3838 41.2405 12.0691 41.3859 11.8371 41.6446C11.6051 41.9034 11.4747 42.2543 11.4747 42.6203C11.4747 42.9862 11.6051 43.3371 11.8371 43.5959C12.0691 43.8546 12.3838 44 12.7119 44C18.1098 43.9872 23.2834 41.5907 27.1008 37.3346C30.9183 33.0785 33.0688 27.3094 33.0819 21.2894C33.0819 21.1082 33.0499 20.9288 32.9877 20.7614C32.9255 20.594 32.8344 20.4419 32.7195 20.3138C32.6046 20.1857 32.4682 20.0841 32.3181 20.0147C32.168 19.9454 32.0072 19.9097 31.8447 19.9097Z" fill="white"/>
</svg>
